<?xml version="1.0"?>
<svg xmlns="http://www.w3.org/2000/svg" id="Filled" viewBox="0 0 512 512" width="512" height="512"><path d="M488,256a648.507,648.507,0,0,1-4.93,81.97C469.39,445.27,432,488,432,488H24V440c304.88-26.51,247.35-256.19,218.65-334.2A184.009,184.009,0,0,0,224,104s-120-8-112,88c0,0-64-16-48-80s80-48,80-48,16-40,72-40,80,48,80,48C336,24,488,88,488,256Z" style="fill:#3397e8"/><path d="M256,488s104-56,104-152-56-72-56-72,8-40-32-56-64,16-64,16-72-32-88,32,56,64,56,64-7.068-46.586,40-56C256,256,368,320,256,488Z" style="fill:#a3d4f7"/><path d="M488,256a648.507,648.507,0,0,1-4.93,81.97C432,208,370.47,124.69,242.65,105.8A184.009,184.009,0,0,0,224,104s-120-8-112,88c0,0-64-16-48-80s80-48,80-48,16-40,72-40,80,48,80,48C336,24,488,88,488,256Z" style="fill:#a3d4f7"/><path d="M372.758,55.667c-29.916-10.831-57.557-9.2-75.083,3.828C287.207,44.493,261.354,16,216,16c-47.848,0-69.152,26.821-76.394,39.092a90.863,90.863,0,0,0-31.341,1.1C89.64,60.329,65.5,73.035,56.239,110.06s6.069,59.6,20.555,72.014a90.128,90.128,0,0,0,33.266,17.687,8,8,0,0,0,9.913-8.425c-1.857-22.273,3.673-40.155,16.433-53.152,29.065-29.6,86.494-26.237,87.062-26.2.054,0,.11.007.165.009,4.409.2,8.811.569,13.141,1.09,7.34,20.7,15.889,50.071,19.755,82.8a59.872,59.872,0,0,0-35.36,7.095,68.186,68.186,0,0,0-15.415,11.572c-11.822-4.19-40.331-12.033-63.756-.608-14.909,7.273-24.922,20.77-29.759,40.119-5.108,20.43-2.593,37.327,7.472,50.219C138.021,327.73,174.458,328,176,328a8.021,8.021,0,0,0,7.914-9.17,52.127,52.127,0,0,1,2.213-21.345c4.6-13.76,15.176-22.387,31.442-25.64,11.5-2.3,24.243,1.724,35.639,8.475-8.9,38.748-28.835,70.667-59.337,94.931C154.585,406.5,97.2,425.6,23.307,432.03A8,8,0,0,0,16,440v48a8,8,0,0,0,8,8H432a8.005,8.005,0,0,0,6.021-2.731c.413-.473,10.244-11.844,21.655-36.71,18.7-40.748,27.359-86.43,31.33-117.578A659.972,659.972,0,0,0,496,256c0-50.548-13.711-96.845-39.651-133.887C434.461,90.855,404.774,67.259,372.758,55.667ZM223.384,255.316a45.82,45.82,0,0,0-8.953.839c-28.125,5.625-39.287,23.188-43.7,36.93a67.2,67.2,0,0,0-3.064,18.211c-9.954-1.358-26.371-5.324-35.381-16.909-6.848-8.805-8.371-21.068-4.526-36.447,3.683-14.732,10.619-24.413,21.2-29.594,22.981-11.253,55.472,2.825,55.787,2.965a8.042,8.042,0,0,0,9.626-2.481c.844-1.1,21.045-26.842,54.652-13.4,33.136,13.255,27.38,45.666,27.126,47a8,8,0,0,0,11,8.923c.134-.061,13.883-5.6,25.406,2C345.276,281.739,352,303.4,352,336c0,37.49-16.6,73.165-49.35,106.035a246.286,246.286,0,0,1-20.589,18.416C298.719,429.844,308.6,401.2,311.5,374.965c3.273-29.528-2.51-56.356-16.725-77.581C276.189,269.627,245.959,255.316,223.384,255.316ZM32,447.289c73.591-7.323,131.371-27.332,171.832-59.517,31.681-25.2,52.953-57.89,63.359-97.3a83.2,83.2,0,0,1,14.293,15.818c12.26,18.307,17.009,40.82,14.117,66.915-3.51,31.655-18.278,67.569-43.908,106.8H32ZM428.076,480H282.892a268.535,268.535,0,0,0,30.765-26.343C349.208,418.105,368,377.42,368,336c0-38.779-8.962-64.352-26.636-76.006a42.2,42.2,0,0,0-28.749-6.283,64.262,64.262,0,0,0-1.854-13.651c-3.19-12.759-11.989-29.967-35.79-39.488-.644-.257-1.283-.5-1.92-.735-3.245-32.32-11.036-61.767-18.376-83.879,117.891,22.571,173.816,105.634,220.193,223.029C463.423,426.1,435.891,469.243,428.076,480Zm50.181-174.721C453.235,247.4,427.762,206.4,397.421,174.7c-40.591-42.408-90.832-67.534-153.592-76.811h-.009a193.069,193.069,0,0,0-19.377-1.874c-3.709-.235-65.464-3.6-99.407,30.915-13.679,13.907-20.848,31.838-21.388,53.422A71.891,71.891,0,0,1,86.82,169.592c-15.784-13.761-20.85-32.485-15.059-55.652s19.074-37.3,39.476-42.017a74.782,74.782,0,0,1,30.823-.162,8,8,0,0,0,9.368-4.79C151.567,66.621,166,32,216,32c50.172,0,71.952,41.817,72.845,43.578a8,8,0,0,0,13.3,1.543c11.848-14.216,36.816-16.673,65.166-6.41,28.948,10.481,55.915,32,75.931,60.58C467.29,165.629,480,208.753,480,256,480,272.89,479.407,289.361,478.257,305.279Z"/></svg>
